<mxfile host="app.diagrams.net" modified="2024-05-19T00:48:10.697Z" agent="Mozilla/5.0 (Macintosh; Intel Mac OS X 10_15_7) AppleWebKit/537.36 (KHTML, like Gecko) Chrome/120.0.0.0 YaBrowser/24.1.0.0 Safari/537.36" etag="UN8lz98_xf8elmhByR8h" version="24.4.4" type="github">
  <diagram id="C5RBs43oDa-KdzZeNtuy" name="Page-1">
    <mxGraphModel dx="980" dy="692" grid="1" gridSize="10" guides="1" tooltips="1" connect="1" arrows="1" fold="1" page="1" pageScale="1" pageWidth="827" pageHeight="1169" math="0" shadow="0">
      <root>
        <mxCell id="WIyWlLk6GJQsqaUBKTNV-0" />
        <mxCell id="WIyWlLk6GJQsqaUBKTNV-1" parent="WIyWlLk6GJQsqaUBKTNV-0" />
        <mxCell id="kEjIuvrIirV6rfl9TdOs-2" value="" style="rounded=0;whiteSpace=wrap;html=1;" vertex="1" parent="WIyWlLk6GJQsqaUBKTNV-1">
          <mxGeometry x="48" y="130" width="830" height="650" as="geometry" />
        </mxCell>
        <mxCell id="G3HCrtdbnv7-njKT6J-s-4" value="User Service" style="rounded=1;whiteSpace=wrap;html=1;direction=west;" parent="WIyWlLk6GJQsqaUBKTNV-1" vertex="1">
          <mxGeometry x="110" y="340" width="100" height="60" as="geometry" />
        </mxCell>
        <mxCell id="G3HCrtdbnv7-njKT6J-s-28" value="" style="edgeStyle=orthogonalEdgeStyle;rounded=0;orthogonalLoop=1;jettySize=auto;html=1;" parent="WIyWlLk6GJQsqaUBKTNV-1" source="G3HCrtdbnv7-njKT6J-s-5" target="G3HCrtdbnv7-njKT6J-s-16" edge="1">
          <mxGeometry relative="1" as="geometry" />
        </mxCell>
        <mxCell id="G3HCrtdbnv7-njKT6J-s-5" value="Course Service" style="rounded=1;whiteSpace=wrap;html=1;" parent="WIyWlLk6GJQsqaUBKTNV-1" vertex="1">
          <mxGeometry x="220" y="340" width="100" height="60" as="geometry" />
        </mxCell>
        <mxCell id="G3HCrtdbnv7-njKT6J-s-32" value="" style="edgeStyle=orthogonalEdgeStyle;rounded=0;orthogonalLoop=1;jettySize=auto;html=1;" parent="WIyWlLk6GJQsqaUBKTNV-1" source="G3HCrtdbnv7-njKT6J-s-7" target="G3HCrtdbnv7-njKT6J-s-17" edge="1">
          <mxGeometry relative="1" as="geometry" />
        </mxCell>
        <mxCell id="G3HCrtdbnv7-njKT6J-s-7" value="Analytics Service" style="rounded=1;whiteSpace=wrap;html=1;" parent="WIyWlLk6GJQsqaUBKTNV-1" vertex="1">
          <mxGeometry x="450" y="340" width="110" height="60" as="geometry" />
        </mxCell>
        <mxCell id="G3HCrtdbnv7-njKT6J-s-34" value="" style="edgeStyle=orthogonalEdgeStyle;rounded=0;orthogonalLoop=1;jettySize=auto;html=1;" parent="WIyWlLk6GJQsqaUBKTNV-1" source="G3HCrtdbnv7-njKT6J-s-8" target="G3HCrtdbnv7-njKT6J-s-19" edge="1">
          <mxGeometry relative="1" as="geometry" />
        </mxCell>
        <mxCell id="G3HCrtdbnv7-njKT6J-s-8" value="Notification Service" style="rounded=1;whiteSpace=wrap;html=1;" parent="WIyWlLk6GJQsqaUBKTNV-1" vertex="1">
          <mxGeometry x="700" y="340" width="110" height="60" as="geometry" />
        </mxCell>
        <mxCell id="G3HCrtdbnv7-njKT6J-s-33" value="" style="edgeStyle=orthogonalEdgeStyle;rounded=0;orthogonalLoop=1;jettySize=auto;html=1;" parent="WIyWlLk6GJQsqaUBKTNV-1" source="G3HCrtdbnv7-njKT6J-s-9" target="G3HCrtdbnv7-njKT6J-s-18" edge="1">
          <mxGeometry relative="1" as="geometry" />
        </mxCell>
        <mxCell id="G3HCrtdbnv7-njKT6J-s-9" value="Payment Service" style="rounded=1;whiteSpace=wrap;html=1;" parent="WIyWlLk6GJQsqaUBKTNV-1" vertex="1">
          <mxGeometry x="570" y="340" width="110" height="60" as="geometry" />
        </mxCell>
        <mxCell id="G3HCrtdbnv7-njKT6J-s-14" value="db" style="shape=cylinder3;whiteSpace=wrap;html=1;boundedLbl=1;backgroundOutline=1;size=15;" parent="WIyWlLk6GJQsqaUBKTNV-1" vertex="1">
          <mxGeometry x="140" y="450" width="40" height="60" as="geometry" />
        </mxCell>
        <mxCell id="G3HCrtdbnv7-njKT6J-s-16" value="db" style="shape=cylinder3;whiteSpace=wrap;html=1;boundedLbl=1;backgroundOutline=1;size=15;" parent="WIyWlLk6GJQsqaUBKTNV-1" vertex="1">
          <mxGeometry x="300" y="450" width="40" height="60" as="geometry" />
        </mxCell>
        <mxCell id="G3HCrtdbnv7-njKT6J-s-17" value="db" style="shape=cylinder3;whiteSpace=wrap;html=1;boundedLbl=1;backgroundOutline=1;size=15;" parent="WIyWlLk6GJQsqaUBKTNV-1" vertex="1">
          <mxGeometry x="485" y="450" width="40" height="60" as="geometry" />
        </mxCell>
        <mxCell id="G3HCrtdbnv7-njKT6J-s-18" value="db" style="shape=cylinder3;whiteSpace=wrap;html=1;boundedLbl=1;backgroundOutline=1;size=15;" parent="WIyWlLk6GJQsqaUBKTNV-1" vertex="1">
          <mxGeometry x="605" y="450" width="40" height="60" as="geometry" />
        </mxCell>
        <mxCell id="G3HCrtdbnv7-njKT6J-s-19" value="db" style="shape=cylinder3;whiteSpace=wrap;html=1;boundedLbl=1;backgroundOutline=1;size=15;" parent="WIyWlLk6GJQsqaUBKTNV-1" vertex="1">
          <mxGeometry x="735" y="450" width="40" height="60" as="geometry" />
        </mxCell>
        <mxCell id="G3HCrtdbnv7-njKT6J-s-24" value="" style="edgeStyle=orthogonalEdgeStyle;rounded=0;orthogonalLoop=1;jettySize=auto;html=1;exitX=0.5;exitY=0;exitDx=0;exitDy=0;entryX=0.5;entryY=0;entryDx=0;entryDy=0;entryPerimeter=0;" parent="WIyWlLk6GJQsqaUBKTNV-1" source="G3HCrtdbnv7-njKT6J-s-4" target="G3HCrtdbnv7-njKT6J-s-14" edge="1">
          <mxGeometry relative="1" as="geometry">
            <mxPoint x="134.75" y="410" as="sourcePoint" />
            <mxPoint x="184.75" y="460" as="targetPoint" />
          </mxGeometry>
        </mxCell>
        <mxCell id="G3HCrtdbnv7-njKT6J-s-31" value="" style="edgeStyle=orthogonalEdgeStyle;rounded=0;orthogonalLoop=1;jettySize=auto;html=1;exitX=0.5;exitY=1;exitDx=0;exitDy=0;entryX=0.5;entryY=0;entryDx=0;entryDy=0;entryPerimeter=0;" parent="WIyWlLk6GJQsqaUBKTNV-1" source="G3HCrtdbnv7-njKT6J-s-6" target="G3HCrtdbnv7-njKT6J-s-16" edge="1">
          <mxGeometry relative="1" as="geometry">
            <mxPoint x="340" y="455" as="sourcePoint" />
            <mxPoint x="380" y="505" as="targetPoint" />
          </mxGeometry>
        </mxCell>
        <mxCell id="kEjIuvrIirV6rfl9TdOs-11" value="" style="edgeStyle=orthogonalEdgeStyle;rounded=0;orthogonalLoop=1;jettySize=auto;html=1;" edge="1" parent="WIyWlLk6GJQsqaUBKTNV-1" source="G3HCrtdbnv7-njKT6J-s-37" target="G3HCrtdbnv7-njKT6J-s-6">
          <mxGeometry relative="1" as="geometry">
            <Array as="points">
              <mxPoint x="460" y="280" />
              <mxPoint x="385" y="280" />
            </Array>
          </mxGeometry>
        </mxCell>
        <mxCell id="G3HCrtdbnv7-njKT6J-s-40" value="" style="endArrow=classic;html=1;rounded=0;" parent="WIyWlLk6GJQsqaUBKTNV-1" target="G3HCrtdbnv7-njKT6J-s-6" edge="1">
          <mxGeometry width="50" height="50" relative="1" as="geometry">
            <mxPoint x="390" y="380" as="sourcePoint" />
            <mxPoint x="440" y="330" as="targetPoint" />
          </mxGeometry>
        </mxCell>
        <mxCell id="G3HCrtdbnv7-njKT6J-s-6" value="Enrollment Service" style="rounded=1;whiteSpace=wrap;html=1;" parent="WIyWlLk6GJQsqaUBKTNV-1" vertex="1">
          <mxGeometry x="330" y="340" width="110" height="60" as="geometry" />
        </mxCell>
        <mxCell id="G3HCrtdbnv7-njKT6J-s-42" value="" style="endArrow=none;html=1;rounded=0;" parent="WIyWlLk6GJQsqaUBKTNV-1" edge="1">
          <mxGeometry width="50" height="50" relative="1" as="geometry">
            <mxPoint x="160" y="280" as="sourcePoint" />
            <mxPoint x="760" y="280" as="targetPoint" />
          </mxGeometry>
        </mxCell>
        <mxCell id="G3HCrtdbnv7-njKT6J-s-44" value="" style="edgeStyle=orthogonalEdgeStyle;rounded=0;orthogonalLoop=1;jettySize=auto;html=1;entryX=0.5;entryY=1;entryDx=0;entryDy=0;" parent="WIyWlLk6GJQsqaUBKTNV-1" target="G3HCrtdbnv7-njKT6J-s-4" edge="1">
          <mxGeometry relative="1" as="geometry">
            <mxPoint x="159.5" y="280" as="sourcePoint" />
            <mxPoint x="159.5" y="320" as="targetPoint" />
          </mxGeometry>
        </mxCell>
        <mxCell id="G3HCrtdbnv7-njKT6J-s-45" value="" style="edgeStyle=orthogonalEdgeStyle;rounded=0;orthogonalLoop=1;jettySize=auto;html=1;entryX=0.5;entryY=1;entryDx=0;entryDy=0;" parent="WIyWlLk6GJQsqaUBKTNV-1" edge="1">
          <mxGeometry relative="1" as="geometry">
            <mxPoint x="269.5" y="280" as="sourcePoint" />
            <mxPoint x="270" y="340" as="targetPoint" />
          </mxGeometry>
        </mxCell>
        <mxCell id="G3HCrtdbnv7-njKT6J-s-46" value="" style="edgeStyle=orthogonalEdgeStyle;rounded=0;orthogonalLoop=1;jettySize=auto;html=1;entryX=0.5;entryY=1;entryDx=0;entryDy=0;" parent="WIyWlLk6GJQsqaUBKTNV-1" edge="1">
          <mxGeometry relative="1" as="geometry">
            <mxPoint x="384.5" y="280" as="sourcePoint" />
            <mxPoint x="385" y="340" as="targetPoint" />
          </mxGeometry>
        </mxCell>
        <mxCell id="G3HCrtdbnv7-njKT6J-s-47" value="" style="edgeStyle=orthogonalEdgeStyle;rounded=0;orthogonalLoop=1;jettySize=auto;html=1;entryX=0.5;entryY=1;entryDx=0;entryDy=0;" parent="WIyWlLk6GJQsqaUBKTNV-1" edge="1">
          <mxGeometry relative="1" as="geometry">
            <mxPoint x="504.5" y="280" as="sourcePoint" />
            <mxPoint x="505" y="340" as="targetPoint" />
          </mxGeometry>
        </mxCell>
        <mxCell id="G3HCrtdbnv7-njKT6J-s-48" value="" style="edgeStyle=orthogonalEdgeStyle;rounded=0;orthogonalLoop=1;jettySize=auto;html=1;entryX=0.5;entryY=1;entryDx=0;entryDy=0;" parent="WIyWlLk6GJQsqaUBKTNV-1" edge="1">
          <mxGeometry relative="1" as="geometry">
            <mxPoint x="624.5" y="280" as="sourcePoint" />
            <mxPoint x="625" y="340" as="targetPoint" />
          </mxGeometry>
        </mxCell>
        <mxCell id="G3HCrtdbnv7-njKT6J-s-49" value="" style="edgeStyle=orthogonalEdgeStyle;rounded=0;orthogonalLoop=1;jettySize=auto;html=1;entryX=0.5;entryY=1;entryDx=0;entryDy=0;" parent="WIyWlLk6GJQsqaUBKTNV-1" edge="1">
          <mxGeometry relative="1" as="geometry">
            <mxPoint x="760" y="280" as="sourcePoint" />
            <mxPoint x="760" y="340" as="targetPoint" />
          </mxGeometry>
        </mxCell>
        <mxCell id="G3HCrtdbnv7-njKT6J-s-56" value="" style="edgeStyle=orthogonalEdgeStyle;rounded=0;orthogonalLoop=1;jettySize=auto;html=1;entryX=0.25;entryY=1;entryDx=0;entryDy=0;" parent="WIyWlLk6GJQsqaUBKTNV-1" target="G3HCrtdbnv7-njKT6J-s-52" edge="1">
          <mxGeometry relative="1" as="geometry">
            <mxPoint x="280" y="670" as="sourcePoint" />
            <mxPoint x="379.5" y="675" as="targetPoint" />
            <Array as="points">
              <mxPoint x="280" y="690" />
              <mxPoint x="320" y="690" />
              <mxPoint x="320" y="670" />
              <mxPoint x="380" y="670" />
            </Array>
          </mxGeometry>
        </mxCell>
        <mxCell id="G3HCrtdbnv7-njKT6J-s-51" value="Grafana" style="rounded=1;whiteSpace=wrap;html=1;" parent="WIyWlLk6GJQsqaUBKTNV-1" vertex="1">
          <mxGeometry x="190" y="660" width="90" height="50" as="geometry" />
        </mxCell>
        <mxCell id="G3HCrtdbnv7-njKT6J-s-55" value="" style="edgeStyle=orthogonalEdgeStyle;rounded=0;orthogonalLoop=1;jettySize=auto;html=1;" parent="WIyWlLk6GJQsqaUBKTNV-1" source="G3HCrtdbnv7-njKT6J-s-52" target="G3HCrtdbnv7-njKT6J-s-53" edge="1">
          <mxGeometry relative="1" as="geometry" />
        </mxCell>
        <mxCell id="G3HCrtdbnv7-njKT6J-s-52" value="Prometheus" style="rounded=1;whiteSpace=wrap;html=1;" parent="WIyWlLk6GJQsqaUBKTNV-1" vertex="1">
          <mxGeometry x="360" y="610" width="80" height="50" as="geometry" />
        </mxCell>
        <mxCell id="G3HCrtdbnv7-njKT6J-s-53" value="db" style="shape=cylinder3;whiteSpace=wrap;html=1;boundedLbl=1;backgroundOutline=1;size=15;" parent="WIyWlLk6GJQsqaUBKTNV-1" vertex="1">
          <mxGeometry x="380" y="680" width="40" height="60" as="geometry" />
        </mxCell>
        <mxCell id="G3HCrtdbnv7-njKT6J-s-57" value="Query" style="text;html=1;align=center;verticalAlign=middle;whiteSpace=wrap;rounded=0;" parent="WIyWlLk6GJQsqaUBKTNV-1" vertex="1">
          <mxGeometry x="290" y="640" width="60" as="geometry" />
        </mxCell>
        <mxCell id="G3HCrtdbnv7-njKT6J-s-58" value="" style="endArrow=none;html=1;rounded=0;exitX=0;exitY=0;exitDx=0;exitDy=0;" parent="WIyWlLk6GJQsqaUBKTNV-1" edge="1" source="G3HCrtdbnv7-njKT6J-s-69">
          <mxGeometry width="50" height="50" relative="1" as="geometry">
            <mxPoint x="80" y="560" as="sourcePoint" />
            <mxPoint x="790" y="560" as="targetPoint" />
          </mxGeometry>
        </mxCell>
        <mxCell id="G3HCrtdbnv7-njKT6J-s-60" value="" style="endArrow=classic;html=1;rounded=0;" parent="WIyWlLk6GJQsqaUBKTNV-1" edge="1">
          <mxGeometry width="50" height="50" relative="1" as="geometry">
            <mxPoint x="540" y="560" as="sourcePoint" />
            <mxPoint x="540.5" y="400" as="targetPoint" />
          </mxGeometry>
        </mxCell>
        <mxCell id="G3HCrtdbnv7-njKT6J-s-61" value="" style="endArrow=classic;html=1;rounded=0;" parent="WIyWlLk6GJQsqaUBKTNV-1" edge="1">
          <mxGeometry width="50" height="50" relative="1" as="geometry">
            <mxPoint x="399.5" y="560" as="sourcePoint" />
            <mxPoint x="400" y="400" as="targetPoint" />
          </mxGeometry>
        </mxCell>
        <mxCell id="G3HCrtdbnv7-njKT6J-s-62" value="" style="endArrow=classic;html=1;rounded=0;" parent="WIyWlLk6GJQsqaUBKTNV-1" edge="1">
          <mxGeometry width="50" height="50" relative="1" as="geometry">
            <mxPoint x="130" y="560" as="sourcePoint" />
            <mxPoint x="130.5" y="400" as="targetPoint" />
          </mxGeometry>
        </mxCell>
        <mxCell id="G3HCrtdbnv7-njKT6J-s-63" value="" style="endArrow=classic;html=1;rounded=0;" parent="WIyWlLk6GJQsqaUBKTNV-1" edge="1">
          <mxGeometry width="50" height="50" relative="1" as="geometry">
            <mxPoint x="250" y="560" as="sourcePoint" />
            <mxPoint x="250.5" y="400" as="targetPoint" />
          </mxGeometry>
        </mxCell>
        <mxCell id="G3HCrtdbnv7-njKT6J-s-64" value="" style="endArrow=classic;html=1;rounded=0;" parent="WIyWlLk6GJQsqaUBKTNV-1" edge="1">
          <mxGeometry width="50" height="50" relative="1" as="geometry">
            <mxPoint x="790" y="560" as="sourcePoint" />
            <mxPoint x="790.5" y="400" as="targetPoint" />
          </mxGeometry>
        </mxCell>
        <mxCell id="G3HCrtdbnv7-njKT6J-s-65" value="HTTP get" style="text;html=1;align=center;verticalAlign=middle;whiteSpace=wrap;rounded=0;" parent="WIyWlLk6GJQsqaUBKTNV-1" vertex="1">
          <mxGeometry x="403" y="570" width="60" height="30" as="geometry" />
        </mxCell>
        <mxCell id="G3HCrtdbnv7-njKT6J-s-66" value="" style="endArrow=classic;html=1;rounded=0;exitX=0.5;exitY=0;exitDx=0;exitDy=0;" parent="WIyWlLk6GJQsqaUBKTNV-1" source="G3HCrtdbnv7-njKT6J-s-52" edge="1">
          <mxGeometry width="50" height="50" relative="1" as="geometry">
            <mxPoint x="400" y="580" as="sourcePoint" />
            <mxPoint x="400" y="560" as="targetPoint" />
            <Array as="points" />
          </mxGeometry>
        </mxCell>
        <mxCell id="G3HCrtdbnv7-njKT6J-s-69" value="*" style="text;html=1;align=center;verticalAlign=middle;whiteSpace=wrap;rounded=0;" parent="WIyWlLk6GJQsqaUBKTNV-1" vertex="1">
          <mxGeometry x="130" y="560" width="60" height="30" as="geometry" />
        </mxCell>
        <mxCell id="G3HCrtdbnv7-njKT6J-s-70" value="*" style="text;html=1;align=center;verticalAlign=middle;whiteSpace=wrap;rounded=0;" parent="WIyWlLk6GJQsqaUBKTNV-1" vertex="1">
          <mxGeometry x="220" y="560" width="60" height="30" as="geometry" />
        </mxCell>
        <mxCell id="G3HCrtdbnv7-njKT6J-s-71" value="*" style="text;html=1;align=center;verticalAlign=middle;whiteSpace=wrap;rounded=0;" parent="WIyWlLk6GJQsqaUBKTNV-1" vertex="1">
          <mxGeometry x="360" y="560" width="60" height="30" as="geometry" />
        </mxCell>
        <mxCell id="G3HCrtdbnv7-njKT6J-s-72" value="*" style="text;html=1;align=center;verticalAlign=middle;whiteSpace=wrap;rounded=0;" parent="WIyWlLk6GJQsqaUBKTNV-1" vertex="1">
          <mxGeometry x="510" y="560" width="60" height="30" as="geometry" />
        </mxCell>
        <mxCell id="G3HCrtdbnv7-njKT6J-s-73" value="*" style="text;html=1;align=center;verticalAlign=middle;whiteSpace=wrap;rounded=0;" parent="WIyWlLk6GJQsqaUBKTNV-1" vertex="1">
          <mxGeometry x="760" y="560" width="60" height="30" as="geometry" />
        </mxCell>
        <mxCell id="G3HCrtdbnv7-njKT6J-s-74" value="" style="endArrow=classic;html=1;rounded=0;" parent="WIyWlLk6GJQsqaUBKTNV-1" edge="1">
          <mxGeometry width="50" height="50" relative="1" as="geometry">
            <mxPoint x="660" y="560" as="sourcePoint" />
            <mxPoint x="660.5" y="400" as="targetPoint" />
          </mxGeometry>
        </mxCell>
        <mxCell id="G3HCrtdbnv7-njKT6J-s-77" value="*" style="text;html=1;align=center;verticalAlign=middle;whiteSpace=wrap;rounded=0;" parent="WIyWlLk6GJQsqaUBKTNV-1" vertex="1">
          <mxGeometry x="630" y="560" width="60" height="30" as="geometry" />
        </mxCell>
        <mxCell id="G3HCrtdbnv7-njKT6J-s-78" value="* - actuator" style="text;html=1;align=center;verticalAlign=middle;whiteSpace=wrap;rounded=0;" parent="WIyWlLk6GJQsqaUBKTNV-1" vertex="1">
          <mxGeometry x="775" y="740" width="90" height="30" as="geometry" />
        </mxCell>
        <mxCell id="kEjIuvrIirV6rfl9TdOs-3" value="&lt;b&gt;KUBER CLUSTER&lt;/b&gt;" style="text;html=1;align=center;verticalAlign=middle;whiteSpace=wrap;rounded=0;" vertex="1" parent="WIyWlLk6GJQsqaUBKTNV-1">
          <mxGeometry x="70" y="140" width="140" height="80" as="geometry" />
        </mxCell>
        <mxCell id="G3HCrtdbnv7-njKT6J-s-37" value="&lt;span style=&quot;font-family: Menlo, Monaco, Consolas, &amp;quot;Andale Mono&amp;quot;, &amp;quot;Ubuntu Mono&amp;quot;, &amp;quot;Courier New&amp;quot;, monospace; font-size: 13px; text-align: left; white-space: pre;&quot;&gt;Route/OpenShift Ingress&lt;/span&gt;" style="rounded=0;whiteSpace=wrap;html=1;labelBackgroundColor=default;" parent="WIyWlLk6GJQsqaUBKTNV-1" vertex="1">
          <mxGeometry x="370" y="100" width="180" height="60" as="geometry" />
        </mxCell>
        <mxCell id="kEjIuvrIirV6rfl9TdOs-21" value="" style="edgeStyle=orthogonalEdgeStyle;rounded=0;orthogonalLoop=1;jettySize=auto;html=1;" edge="1" parent="WIyWlLk6GJQsqaUBKTNV-1" source="kEjIuvrIirV6rfl9TdOs-20" target="G3HCrtdbnv7-njKT6J-s-37">
          <mxGeometry relative="1" as="geometry" />
        </mxCell>
        <mxCell id="kEjIuvrIirV6rfl9TdOs-20" value="Client with TOKEN" style="rounded=1;whiteSpace=wrap;html=1;" vertex="1" parent="WIyWlLk6GJQsqaUBKTNV-1">
          <mxGeometry x="403" y="10" width="120" height="60" as="geometry" />
        </mxCell>
        <mxCell id="kEjIuvrIirV6rfl9TdOs-22" value="" style="shape=cylinder3;whiteSpace=wrap;html=1;boundedLbl=1;backgroundOutline=1;size=15;rotation=90;" vertex="1" parent="WIyWlLk6GJQsqaUBKTNV-1">
          <mxGeometry x="607.5" y="650" width="52.5" height="157.5" as="geometry" />
        </mxCell>
        <mxCell id="kEjIuvrIirV6rfl9TdOs-28" value="" style="edgeStyle=orthogonalEdgeStyle;rounded=0;orthogonalLoop=1;jettySize=auto;html=1;" edge="1" parent="WIyWlLk6GJQsqaUBKTNV-1" source="kEjIuvrIirV6rfl9TdOs-23" target="kEjIuvrIirV6rfl9TdOs-27">
          <mxGeometry relative="1" as="geometry" />
        </mxCell>
        <mxCell id="kEjIuvrIirV6rfl9TdOs-23" value="kafka claster" style="text;html=1;align=center;verticalAlign=middle;whiteSpace=wrap;rounded=0;" vertex="1" parent="WIyWlLk6GJQsqaUBKTNV-1">
          <mxGeometry x="568.75" y="705.63" width="130" height="46.25" as="geometry" />
        </mxCell>
        <mxCell id="kEjIuvrIirV6rfl9TdOs-27" value="Payment Consumer" style="rounded=1;whiteSpace=wrap;html=1;" vertex="1" parent="WIyWlLk6GJQsqaUBKTNV-1">
          <mxGeometry x="615" y="620" width="120" height="60" as="geometry" />
        </mxCell>
        <mxCell id="kEjIuvrIirV6rfl9TdOs-31" value="" style="endArrow=classic;html=1;rounded=0;" edge="1" parent="WIyWlLk6GJQsqaUBKTNV-1">
          <mxGeometry width="50" height="50" relative="1" as="geometry">
            <mxPoint x="590" y="400" as="sourcePoint" />
            <mxPoint x="590" y="700" as="targetPoint" />
          </mxGeometry>
        </mxCell>
      </root>
    </mxGraphModel>
  </diagram>
</mxfile>
